<svg width="456" height="456" viewBox="0 0 456 456" fill="none" xmlns="http://www.w3.org/2000/svg">
<path d="M152.974 295.707L141.951 171.17C149.171 168.849 157.68 166.786 167.478 164.982C177.405 163.048 187.46 162.081 197.645 162.081C204.736 162.081 211.633 162.661 218.337 163.821C225.17 164.982 231.487 166.98 237.288 169.816C241.543 180.259 243.67 191.153 243.67 202.498C243.67 213.843 241.478 224.994 237.095 235.953C232.841 246.782 226.717 256.644 218.724 265.54C210.731 274.435 201.126 281.591 189.91 287.005C178.823 292.42 166.511 295.321 152.974 295.707ZM174.053 279.463C182.304 276.111 189.007 271.019 194.164 264.186C199.321 257.353 203.124 249.683 205.574 241.174C208.023 232.665 209.248 224.156 209.248 215.647C209.248 206.494 207.894 198.243 205.187 190.895C202.48 183.417 198.483 178.132 193.197 175.037C191.908 175.037 190.49 175.166 188.943 175.424C187.525 175.682 186.107 176.004 184.689 176.391L174.053 279.463ZM280.276 301.702L270.994 289.132C277.569 285.394 282.017 281.913 284.337 278.69C286.658 275.467 287.818 272.115 287.818 268.634C287.818 264.895 286.851 261.35 284.918 257.998C282.984 254.517 280.599 251.036 277.762 247.555C274.926 244.075 272.025 240.4 269.06 236.533C266.224 232.536 263.839 228.217 261.905 223.576C259.971 218.806 259.004 213.585 259.004 207.912C259.004 197.212 261.712 187.865 267.126 179.872C272.67 171.75 279.632 164.337 288.012 157.633L323.4 181.226C316.439 185.609 310.702 190.443 306.189 195.729C301.677 201.015 299.421 206.816 299.421 213.134C299.421 217.388 300.388 221.384 302.322 225.123C304.385 228.862 306.641 232.536 309.09 236.146C311.669 239.627 313.925 243.172 315.859 246.782C317.921 250.392 318.953 254.259 318.953 258.385C318.953 268.569 315.407 277.207 308.317 284.298C301.355 291.26 292.008 297.061 280.276 301.702Z" fill="white"/>
</svg>
